<?xml version="1.0" standalone="no"?>
<!DOCTYPE svg PUBLIC "-//W3C//DTD SVG 20010904//EN"
 "http://www.w3.org/TR/2001/REC-SVG-20010904/DTD/svg10.dtd">
<svg version="1.0" xmlns="http://www.w3.org/2000/svg"
 width="512.000000pt" height="512.000000pt" viewBox="0 0 512.000000 512.000000"
 preserveAspectRatio="xMidYMid meet">
<metadata>
Created by potrace 1.11, written by Peter Selinger 2001-2013
</metadata>
<g transform="translate(0.000000,512.000000) scale(0.100000,-0.100000)"
fill="#000000" stroke="none">
<path d="M632 4966 c-28 -31 -31 -48 -17 -84 15 -34 48 -48 89 -38 26 6 56 59
49 86 -13 51 -88 73 -121 36z"/>
<path d="M3846 4969 c-49 -38 -25 -119 37 -125 37 -4 57 6 73 38 26 50 -11
108 -70 108 -7 0 -25 -9 -40 -21z"/>
<path d="M2509 4908 c-31 -68 -132 -169 -195 -198 -184 -81 -384 -47 -512 87
-19 19 -35 33 -38 31 -2 -2 -6 -24 -8 -49 -15 -125 -53 -206 -134 -281 -95
-88 -197 -127 -317 -123 -70 3 -150 24 -192 51 -30 19 -34 6 -19 -54 38 -144
-7 -307 -115 -413 -93 -92 -201 -133 -330 -127 -38 2 -69 0 -69 -3 0 -4 16
-33 35 -65 20 -33 42 -82 51 -110 68 -235 -74 -485 -310 -545 -25 -6 -46 -15
-46 -20 0 -5 17 -20 37 -33 152 -97 223 -303 170 -486 -24 -83 -86 -171 -151
-216 -30 -22 -54 -43 -53 -48 2 -5 28 -16 59 -26 79 -24 136 -60 191 -119 137
-147 159 -365 53 -531 -20 -30 -36 -58 -36 -61 0 -3 33 -6 72 -6 95 1 135 -7
202 -39 186 -88 288 -297 243 -494 -9 -36 -14 -67 -11 -69 2 -2 31 8 65 24
131 58 298 41 419 -45 119 -84 182 -204 189 -364 1 -15 10 -10 49 26 99 93
210 134 337 125 162 -11 315 -118 372 -260 8 -20 18 -37 22 -37 3 0 21 29 40
65 36 70 117 152 182 186 170 86 367 56 511 -79 27 -25 48 -39 49 -31 6 164
69 284 196 371 127 87 291 101 429 37 25 -12 47 -19 50 -17 2 3 -2 29 -10 59
-27 106 -6 240 51 333 85 137 215 208 380 209 63 0 90 4 85 11 -3 6 -19 30
-35 54 -58 86 -80 201 -62 317 23 152 182 317 328 341 44 8 47 24 8 47 -80 47
-169 174 -187 267 -9 46 -9 135 0 185 16 96 92 212 177 271 21 15 39 30 39 34
0 4 -21 13 -46 19 -159 40 -282 172 -320 343 -9 41 -6 143 6 189 14 51 69 159
81 159 5 0 9 8 9 18 0 15 -8 17 -75 14 -194 -10 -375 119 -433 308 -19 64 -21
214 -3 249 23 42 7 51 -46 25 -55 -27 -106 -38 -178 -38 -121 0 -212 35 -301
117 -82 74 -125 163 -138 281 -3 27 -7 51 -9 53 -2 1 -26 -18 -53 -43 -138
-129 -334 -155 -508 -67 -67 34 -148 118 -181 186 -14 31 -30 57 -34 57 -4 0
-18 -24 -32 -52z"/>
<path d="M4841 4855 c-24 -32 -22 -96 4 -125 24 -26 75 -26 103 0 30 28 30 97
2 128 -30 31 -82 30 -109 -3z"/>
<path d="M413 4860 c-54 -22 -65 -93 -20 -125 52 -36 117 -2 117 62 0 27 -6
37 -32 53 -37 22 -35 22 -65 10z"/>
<path d="M4724 4729 c-31 -11 -53 -47 -48 -78 10 -52 58 -76 121 -59 57 15 68
116 14 132 -36 11 -67 13 -87 5z"/>
<path d="M5004 4732 c-52 -8 -76 -82 -40 -121 33 -36 113 -32 142 7 26 35 -1
108 -41 112 -5 1 -17 3 -25 4 -8 1 -25 0 -36 -2z"/>
<path d="M4846 4591 c-10 -11 -20 -37 -23 -59 -5 -34 -1 -45 20 -66 54 -53
127 -18 127 60 0 71 -81 113 -124 65z"/>
<path d="M19 3721 c-13 -16 -18 -34 -15 -54 6 -38 23 -55 63 -63 26 -5 37 -1
57 19 34 34 33 71 -1 103 -33 31 -78 29 -104 -5z"/>
<path d="M251 814 c-24 -30 -27 -67 -8 -104 37 -74 137 -46 137 39 0 53 -31
91 -75 91 -24 0 -39 -7 -54 -26z"/>
<path d="M4411 814 c-24 -30 -26 -43 -10 -77 23 -51 93 -57 123 -11 23 33 20
67 -7 92 -33 31 -80 29 -106 -4z"/>
<path d="M4721 814 c-34 -43 -21 -93 27 -113 74 -31 137 63 79 117 -33 31 -80
29 -106 -4z"/>
<path d="M962 733 c-34 -13 -46 -88 -21 -135 12 -23 54 -33 88 -22 52 19 60
128 11 154 -20 10 -56 12 -78 3z"/>
<path d="M144 693 c-53 -9 -76 -86 -38 -123 42 -42 125 -30 143 21 23 65 -29
114 -105 102z"/>
<path d="M381 673 c-32 -27 -36 -67 -9 -97 41 -46 124 -40 147 11 16 34 14 47
-10 77 -16 21 -29 26 -64 26 -26 0 -51 -7 -64 -17z"/>
<path d="M822 585 c-34 -15 -48 -48 -38 -90 16 -64 146 -64 162 0 19 74 -47
122 -124 90z"/>
<path d="M1092 585 c-34 -15 -48 -48 -38 -90 17 -65 145 -65 162 0 18 73 -48
121 -124 90z"/>
<path d="M251 544 c-50 -63 -4 -160 69 -145 32 6 60 44 60 81 0 81 -83 122
-129 64z"/>
<path d="M946 445 c-45 -49 -13 -145 49 -145 58 0 89 45 74 109 -14 64 -79 83
-123 36z"/>
<path d="M1966 249 c-29 -24 -27 -86 3 -110 32 -26 67 -24 96 6 68 68 -24 165
-99 104z"/>
</g>
</svg>
